<?xml version="1.0" encoding="UTF-8"?>
<svg width="1739px" height="462px" viewBox="0 0 1739 462" version="1.1" xmlns="http://www.w3.org/2000/svg" xmlns:xlink="http://www.w3.org/1999/xlink">
    <!-- Generator: Sketch 53.2 (72643) - https://sketchapp.com -->
    <title>banner</title>
    <desc>Created with Sketch.</desc>
    <g id="banner" stroke="none" stroke-width="1" fill="none" fill-rule="evenodd">
        <g id="books" transform="translate(79.000000, 40.000000)" fill-rule="nonzero">
            <path d="M383,195.5 C383,299.052495 299.276355,383 196,383 C92.7236446,383 9,299.052495 9,195.5 C9,91.9445153 92.7236446,8 196,8 C299.276355,8 383,91.9445153 383,195.5 Z" id="Path" fill="#FF9518"></path>
            <path d="M99,355 C127.173789,372.13294 160.190322,382 195.5,382 C230.809678,382 263.826211,372.13294 292,355 L99,355 Z" id="Path" fill="#C67C4A"></path>
            <path d="M387.181641,328 L124.09668,328 L124.09668,339.523012 C124.09668,340.06111 123.989288,340.495155 123.792404,340.777582 C123.625351,341.012443 123.398636,341.131359 123.115242,341.131359 C122.760254,341.131359 122.336654,340.950011 121.889191,340.608126 L107.943229,329.941312 C107.128845,329.314028 106.042999,328.96917 104.888542,328.96917 C103.734085,328.96917 102.648239,329.314028 101.830872,329.941312 L87.8878941,340.608126 C87.4404297,340.950011 87.0168301,341.131359 86.6618425,341.131359 C85.7519985,341.131359 85.6804043,339.8976 85.6804043,339.52004 L85.6804043,328 L3.81835938,328 C1.71826172,328 0,329.712398 0,331.805329 L0,351.194671 C0,353.287602 1.71826172,355 3.81835938,355 L387.181641,355 C389.281738,355 391,353.287602 391,351.194671 L391,331.805329 C391,329.712398 389.281738,328 387.181641,328 L387.181641,328 Z" id="Path" fill="#994334"></path>
            <path d="M23.1428571,351.194671 L23.1428571,331.805329 C23.1428571,329.712398 24.8785714,328 27,328 L3.85714286,328 C1.73571429,328 0,329.712398 0,331.805329 L0,351.194671 C0,353.287602 1.73571429,355 3.85714286,355 L27,355 C24.8785714,355 23.1428571,353.287602 23.1428571,351.194671 Z" id="Path" fill="#87352A"></path>
            <path d="M95.8529522,269 C82.7001111,269 72,279.765092 72,292.998499 C72,302.562465 77.5917481,310.835221 85.654129,314.690835 L85.654129,294.929309 L124.080238,294.929309 L124.080238,317 L328,317 L328,269 L95.8529522,269 Z" id="Path" fill="#FFFFFF"></path>
            <path d="M85.4509111,295.537264 L89.8835984,295.537264 C89.8424458,294.910292 89.8189302,294.274448 89.8189302,293.635647 C89.8189302,283.870269 94.6337453,275.237579 102,270 L95.4979425,270 C82.5408586,270 72,280.602326 72,293.635647 C72,303.055008 77.5085247,311.202681 85.4509111,315 L85.4509111,295.537264 Z" id="Path" fill="#EEF6FF"></path>
            <path d="M85.6975599,314.789161 C77.8603761,311.005939 72.4428849,303 72.4428849,293.755753 C72.4428849,280.879733 82.9590158,270.403118 95.8829197,270.403118 L331.278558,270.403118 C334.44025,270.403118 337,267.849295 337,264.701559 C337,261.550854 334.44025,259 331.278558,259 L95.8829197,259 C76.6475493,259 61,274.590201 61,293.755753 C61,309.393467 71.4177931,322.646622 85.6975599,327 L85.6975599,314.789161 Z" id="Path" fill="#EA2A3D"></path>
            <path d="M331.276598,317 L124,317 L124,328 L331.276598,328 C334.439373,328 337,325.539323 337,322.5 C337,319.463542 334.439373,317 331.276598,317 Z" id="Path" fill="#EA2A3D"></path>
            <path d="M95.8529522,248 L328,248 L328,200 L95.8529522,200 C82.7001111,200 72,210.764419 72,224 C72,237.232578 82.7001111,248 95.8529522,248 Z" id="Path" fill="#FFFFFF"></path>
            <path d="M95.4979425,248 L102,248 C94.6337453,242.679344 89.8189302,233.914675 89.8189302,223.996997 C89.8189302,214.082322 94.6337453,205.320656 102,200 L95.4979425,200 C82.5408586,200 72,210.764419 72,223.996997 C72,237.232578 82.5408586,248 95.4979425,248 Z" id="Path" fill="#EEF6FF"></path>
            <path d="M331.278558,259 L95.8829197,259 C76.6475493,259 61,243.29859 61,223.99701 C61,204.69842 76.6475493,189 95.8829197,189 L331.278558,189 C334.44025,189 337,191.568561 337,194.741136 C337,197.910723 334.44025,200.482272 331.278558,200.482272 L95.8829197,200.482272 C82.9590158,200.482272 72.4428849,211.03161 72.4428849,223.99701 C72.4428849,236.9654 82.9590158,247.517728 95.8829197,247.517728 L331.278558,247.517728 C334.44025,247.517728 337,250.086288 337,253.258864 C337,256.428449 334.44025,259 331.278558,259 Z" id="Path" fill="#0F9390"></path>
            <path d="M327,185.443559 C327,187.400495 325.396194,189 323.436982,189 L56.5630182,189 C54.6038061,189 53,187.400495 53,185.443559 L53,133.553464 C53,131.599506 54.6038061,130 56.5630182,130 L323.436982,130 C325.396194,130 327,131.596527 327,133.553464 L327,185.443559 Z" id="Path" fill="#293D7C"></path>
            <path d="M64.5569035,185.443559 L64.5569035,133.553464 C64.5569035,131.599506 66.1080298,130 68,130 L56.4459848,130 C54.5511264,130 53,131.596527 53,133.553464 L53,185.443559 C53,187.400495 54.5511264,189 56.4459848,189 L68,189 C66.1080298,189 64.5569035,187.400495 64.5569035,185.443559 Z" id="Path" fill="#1A2B63"></path>
            <g id="Group" transform="translate(77.000000, 129.000000)" fill="#445EA0">
                <polygon id="Path" points="140.939062 0.246393846 213.716378 0.246393846 213.716378 59.7656246 140.939062 59.7656246"></polygon>
                <path d="M30.6550223,32.2536062 C30.6550223,34.3689908 28.9353795,36.09976 26.8335937,36.09976 L4.45136738,36.09976 C2.34958166,36.09976 0.629938807,34.3689908 0.629938807,32.2536062 L0.629938807,28.2241585 C0.629938807,26.1087738 2.34958166,24.3780046 4.45136738,24.3780046 L26.8335937,24.3780046 C28.9353795,24.3780046 30.6550223,26.1087738 30.6550223,28.2241585 L30.6550223,32.2536062 Z" id="Path"></path>
                <path d="M126.793806,32.2536062 C126.793806,34.3689908 125.074163,36.09976 122.972378,36.09976 L44.3017022,36.09976 C42.1999165,36.09976 40.4802736,34.3689908 40.4802736,32.2536062 L40.4802736,28.2241585 C40.4802736,26.1087738 42.1999165,24.3780046 44.3017022,24.3780046 L122.972378,24.3780046 C125.074163,24.3780046 126.793806,26.1087738 126.793806,28.2241585 L126.793806,32.2536062 Z" id="Path"></path>
            </g>
            <path d="M85,295 L85,339.999735 C85,341.959232 86.2649615,342.589497 87.8090456,341.394682 L101.687986,330.677188 C103.235039,329.482372 105.764962,329.482372 107.309046,330.677188 L121.190955,341.394682 C122.735039,342.589497 124,341.959232 124,339.999735 L124,295 L85,295 Z" id="Path" fill="#2DA1DC"></path>
            <path d="M97,295 L85,295 L85,339.999735 C85,341.959232 86.3047477,342.589497 87.8973969,341.394682 L97,334.581246 L97,295 Z" id="Path" fill="#1E8BC2"></path>
            <path d="M351,125.443559 L351,90.6148532 C346.131835,83.3679321 340.761921,76.4814216 334.952977,70 L80.5630182,70 C78.6008197,70 77,71.5995058 77,73.5534638 L77,125.443559 C77,127.400495 78.6038061,129 80.5630182,129 L347.436981,129 C349.396193,129 351,127.400495 351,125.443559 Z" id="Path" fill="#FE3745"></path>
            <path d="M88.5037152,125.443559 L88.5037152,73.5534638 C88.5037152,71.5995058 90.078803,70 92,70 L80.4992177,70 C78.5721549,70 77,71.5995058 77,73.5534638 L77,125.443559 C77,127.400495 78.5750878,129 80.4992177,129 L92,129 C90.078803,129 88.5037152,127.400495 88.5037152,125.443559 Z" id="Path" fill="#EA2A3D"></path>
            <polygon id="Path" fill="#B7092B" points="242 70 315 70 315 129 242 129"></polygon>
            <path d="M132,102.063557 C132,104.228601 130.281794,106 128.181764,106 L105.818236,106 C103.718206,106 102,104.228601 102,102.063557 L102,97.9364427 C102,95.7713992 103.718206,94 105.818236,94 L128.181764,94 C130.281794,94 132,95.7713992 132,97.9364427 L132,102.063557 Z" id="Path" fill="#FFFFFF"></path>
            <path d="M228,102.063557 C228,104.228601 226.286604,106 224.192453,106 L145.807547,106 C143.713396,106 142,104.228601 142,102.063557 L142,97.9364427 C142,95.7713992 143.713396,94 145.807547,94 L224.192453,94 C226.286604,94 228,95.7713992 228,97.9364427 L228,102.063557 Z" id="Path" fill="#FFFFFF"></path>
            <path d="M74.8502465,11 C61.7002358,11 51,21.7674212 51,35 C51,48.2325788 61.7002358,59 74.8502465,59 L307,59 L307,11 L74.8502465,11 Z" id="Path" fill="#FFE2B8"></path>
            <path d="M68.6642192,35 C68.6642192,25.0823218 73.540187,16.3206556 81,11 L74.7934117,11 C61.6717607,11 51,21.7674212 51,35 C51,48.2325788 61.6717607,59 74.7934117,59 L81,59 C73.540187,53.6793452 68.6642192,44.9176782 68.6642192,35 Z" id="Path" fill="#FFD782"></path>
            <path d="M310.271135,70 L74.9251897,70 C55.6678488,70 40,54.2985908 40,35 C40,15.7014099 55.6678488,0 74.9251897,0 L310.271135,0 C313.43693,0 316,2.57155063 316,5.7411363 C316,8.91371195 313.43693,11.4822726 310.271135,11.4822726 L74.9251897,11.4822726 C61.9845189,11.4822726 51.4577297,22.0316105 51.4577297,35 C51.4577297,47.9683895 61.9845189,58.5177274 74.9251897,58.5177274 L310.271135,58.5177274 C313.43693,58.5177274 316,61.0892788 316,64.2588637 C316,67.4284501 313.43693,70 310.271135,70 Z" id="Path" fill="#0F9390"></path>
        </g>
        <text id="cmdshelf" font-family="AndaleMono, Andale Mono" font-size="203" font-weight="normal" fill="#000000">
            <tspan x="599" y="305">cmdshelf</tspan>
        </text>
    </g>
</svg>