<?xml version="1.0" encoding="UTF-8"?>
<svg width="1441px" height="397px" viewBox="0 0 1441 397" version="1.1" xmlns="http://www.w3.org/2000/svg" xmlns:xlink="http://www.w3.org/1999/xlink">
    <!-- Generator: Sketch 53.2 (72643) - https://sketchapp.com -->
    <title>banner</title>
    <desc>Created with Sketch.</desc>
    <g id="banner" stroke="none" stroke-width="1" fill="none" fill-rule="evenodd">
        <rect fill="#FFFFFF" x="0" y="0" width="1441" height="397"></rect>
        <g id="books" transform="translate(69.000000, 55.000000)" fill-rule="nonzero">
            <path d="M293,149.5 C293,228.752176 228.976036,293 150,293 C71.0239635,293 7,228.752176 7,149.5 C7,70.2455357 71.0239635,6 150,6 C228.976036,6 293,70.2455357 293,149.5 Z" id="Path" fill="#FF9518"></path>
            <path d="M76,272 C97.458793,284.691067 122.6061,292 149.5,292 C176.3939,292 201.541207,284.691067 223,272 L76,272 Z" id="Path" fill="#C67C4A"></path>
            <path d="M296.080078,252 L94.8974609,252 L94.8974609,260.535565 C94.8974609,260.934156 94.8153381,261.255671 94.6647794,261.464876 C94.5370328,261.638846 94.363663,261.726933 94.1469499,261.726933 C93.8754883,261.726933 93.5515592,261.592601 93.2093811,261.339353 L82.5448225,253.438009 C81.9220581,252.973354 81.0917053,252.717904 80.208885,252.717904 C79.3260654,252.717904 78.495712,252.973354 77.8706665,253.438009 L67.2083896,261.339353 C66.8662109,261.592601 66.5422818,261.726933 66.2708208,261.726933 C65.5750577,261.726933 65.5203092,260.813037 65.5203092,260.533363 L65.5203092,252 L2.91992188,252 C1.31396484,252 0,253.268443 0,254.818762 L0,269.181238 C0,270.731557 1.31396484,272 2.91992188,272 L296.080078,272 C297.686035,272 299,270.731557 299,269.181238 L299,254.818762 C299,253.268443 297.686035,252 296.080078,252 L296.080078,252 Z" id="Path" fill="#994334"></path>
            <path d="M17.1428571,269.181238 L17.1428571,254.818762 C17.1428571,253.268443 18.4285714,252 20,252 L2.85714286,252 C1.28571429,252 0,253.268443 0,254.818762 L0,269.181238 C0,270.731557 1.28571429,272 2.85714286,272 L20,272 C18.4285714,272 17.1428571,270.731557 17.1428571,269.181238 Z" id="Path" fill="#87352A"></path>
            <path d="M73.2624165,206 C63.1922726,206 55,214.298092 55,224.498843 C55,231.871067 59.2811822,238.247983 65.4539425,241.220019 L65.4539425,225.987176 L94.8739323,225.987176 L94.8739323,243 L251,243 L251,206 L73.2624165,206 Z" id="Path" fill="#FFFFFF"></path>
            <path d="M65.3123651,226.294821 L68.7107588,226.294821 C68.6792084,225.82111 68.6611798,225.340694 68.6611798,224.858044 C68.6611798,217.479758 72.3525381,210.957282 78,207 L73.0150892,207 C63.0813249,207 55,215.010647 55,224.858044 C55,231.974895 59.2232023,238.130915 65.3123651,241 L65.3123651,226.294821 Z" id="Path" fill="#EEF6FF"></path>
            <path d="M65.8811055,240.6623 C59.8896353,237.769247 55.7480026,231.647059 55.7480026,224.577929 C55.7480026,214.73156 63.7875085,206.720031 73.6677394,206.720031 L253.625999,206.720031 C256.04309,206.720031 258,204.767108 258,202.360016 C258,199.950653 256.04309,198 253.625999,198 L73.6677394,198 C58.962438,198 47,209.921918 47,224.577929 C47,236.536181 54.9643273,246.670946 65.8811055,250 L65.8811055,240.6623 Z" id="Path" fill="#EA2A3D"></path>
            <path d="M252.620119,243 L94,243 L94,252 L252.620119,252 C255.040459,252 257,249.986719 257,247.5 C257,245.015625 255.040459,243 252.620119,243 Z" id="Path" fill="#EA2A3D"></path>
            <path d="M73.2624165,190 L251,190 L251,153 L73.2624165,153 C63.1922726,153 55,161.297573 55,171.5 C55,181.700112 63.1922726,190 73.2624165,190 Z" id="Path" fill="#FFFFFF"></path>
            <path d="M73.0150892,190 L78,190 C72.3525381,185.898661 68.6611798,179.142562 68.6611798,171.497685 C68.6611798,163.855123 72.3525381,157.101339 78,153 L73.0150892,153 C63.0813249,153 55,161.297573 55,171.497685 C55,181.700112 63.0813249,190 73.0150892,190 Z" id="Path" fill="#EEF6FF"></path>
            <path d="M253.625999,199 L73.6677394,199 C58.962438,199 47,186.887484 47,171.997693 C47,157.11021 58.962438,145 73.6677394,145 L253.625999,145 C256.04309,145 258,146.981461 258,149.428877 C258,151.873986 256.04309,153.857753 253.625999,153.857753 L73.6677394,153.857753 C63.7875085,153.857753 55.7480026,161.995814 55.7480026,171.997693 C55.7480026,182.00188 63.7875085,190.142247 73.6677394,190.142247 L253.625999,190.142247 C256.04309,190.142247 258,192.123708 258,194.571123 C258,197.016232 256.04309,199 253.625999,199 Z" id="Path" fill="#0F9390"></path>
            <path d="M251,142.28746 C251,143.780039 249.770806,145 248.26922,145 L43.7307804,145 C42.2291945,145 41,143.780039 41,142.28746 L41,102.710269 C41,101.219962 42.2291945,100 43.7307804,100 L248.26922,100 C249.770806,100 251,101.21769 251,102.710269 L251,142.28746 Z" id="Path" fill="#293D7C"></path>
            <path d="M49.4750626,142.28746 L49.4750626,102.710269 C49.4750626,101.219962 50.6125552,100 52,100 L43.5270555,100 C42.1374927,100 41,101.21769 41,102.710269 L41,142.28746 C41,143.780039 42.1374927,145 43.5270555,145 L52,145 C50.6125552,145 49.4750626,143.780039 49.4750626,142.28746 Z" id="Path" fill="#1A2B63"></path>
            <g id="Group" transform="translate(59.000000, 99.000000)" fill="#445EA0">
                <polygon id="Path" points="108.009375 0.188901949 163.782645 0.188901949 163.782645 45.8203122 108.009375 45.8203122"></polygon>
                <path d="M23.4926339,24.7277647 C23.4926339,26.3495596 22.1747768,27.6764827 20.5640625,27.6764827 L3.41132827,27.6764827 C1.80061399,27.6764827 0.482756843,26.3495596 0.482756843,24.7277647 L0.482756843,21.6385215 C0.482756843,20.0167266 1.80061399,18.6898035 3.41132827,18.6898035 L20.5640625,18.6898035 C22.1747768,18.6898035 23.4926339,20.0167266 23.4926339,21.6385215 L23.4926339,24.7277647 Z" id="Path"></path>
                <path d="M97.1690851,24.7277647 C97.1690851,26.3495596 95.851228,27.6764827 94.2405137,27.6764827 L33.9508372,27.6764827 C32.3401229,27.6764827 31.0222658,26.3495596 31.0222658,24.7277647 L31.0222658,21.6385215 C31.0222658,20.0167266 32.3401229,18.6898035 33.9508372,18.6898035 L94.2405137,18.6898035 C95.851228,18.6898035 97.1690851,20.0167266 97.1690851,21.6385215 L97.1690851,24.7277647 Z" id="Path"></path>
            </g>
            <path d="M65,226 L65,260.467882 C65,261.968773 65.9730473,262.45153 67.1608043,261.536352 L77.8369123,253.327208 C79.0269532,252.41203 80.9730473,252.41203 82.1608043,253.327208 L92.8391963,261.536352 C94.0269532,262.45153 95,261.968773 95,260.467882 L95,226 L65,226 Z" id="Path" fill="#2DA1DC"></path>
            <path d="M74,226 L65,226 L65,260.467882 C65,261.968773 65.9785608,262.45153 67.1730477,261.536352 L74,256.31755 L74,226 Z" id="Path" fill="#1E8BC2"></path>
            <path d="M269,96.2874599 L269,69.7231931 C265.268925,64.1958805 261.153297,58.9434572 256.701187,54 L61.7307804,54 C60.2269056,54 59,55.2199621 59,56.710269 L59,96.2874599 C59,97.7800385 60.2291945,99 61.7307804,99 L266.269219,99 C267.770805,99 269,97.7800385 269,96.2874599 Z" id="Path" fill="#FE3745"></path>
            <path d="M67.4360578,96.2874599 L67.4360578,56.710269 C67.4360578,55.2199621 68.5911222,54 70,54 L61.566093,54 C60.1529136,54 59,55.2199621 59,56.710269 L59,96.2874599 C59,97.7800385 60.1550644,99 61.566093,99 L70,99 C68.5911222,99 67.4360578,97.7800385 67.4360578,96.2874599 Z" id="Path" fill="#EA2A3D"></path>
            <polygon id="Path" fill="#B7092B" points="185 54 241 54 241 99 185 99"></polygon>
            <path d="M101,78.047668 C101,79.6714506 99.6827086,81 98.0726857,81 L80.9273143,81 C79.3172914,81 78,79.6714506 78,78.047668 L78,74.952332 C78,73.3285494 79.3172914,72 80.9273143,72 L98.0726857,72 C99.6827086,72 101,73.3285494 101,74.952332 L101,78.047668 Z" id="Path" fill="#FFFFFF"></path>
            <path d="M175,78.047668 C175,79.6714506 173.685068,81 172.077929,81 L111.922071,81 C110.314932,81 109,79.6714506 109,78.047668 L109,74.952332 C109,73.3285494 110.314932,72 111.922071,72 L172.077929,72 C173.685068,72 175,73.3285494 175,74.952332 L175,78.047668 Z" id="Path" fill="#FFFFFF"></path>
            <path d="M57.260345,8 C47.192368,8 39,16.2998872 39,26.5 C39,36.7001128 47.192368,45 57.260345,45 L235,45 L235,8 L57.260345,8 Z" id="Path" fill="#FFE2B8"></path>
            <path d="M52.5425681,26.5 C52.5425681,18.855123 56.28081,12.1013387 62,8 L57.2416156,8 C47.1816832,8 39,16.2998872 39,26.5 C39,36.7001128 47.1816832,45 57.2416156,45 L62,45 C56.28081,40.8986619 52.5425681,34.144877 52.5425681,26.5 Z" id="Path" fill="#FFD782"></path>
            <path d="M237.620324,54 L57.7000544,54 C42.9779569,54 31,41.8874844 31,27 C31,12.1125162 42.9779569,0 57.7000544,0 L237.620324,0 C240.040551,0 242,1.98376763 242,4.42887657 C242,6.87629207 240.040551,8.85775315 237.620324,8.85775315 L57.7000544,8.85775315 C47.8070054,8.85775315 39.7593513,16.9958138 39.7593513,27 C39.7593513,37.0041862 47.8070054,45.1422469 57.7000544,45.1422469 L237.620324,45.1422469 C240.040551,45.1422469 242,47.1260151 242,49.5711234 C242,52.016233 240.040551,54 237.620324,54 Z" id="Path" fill="#0F9390"></path>
        </g>
        <text id="s" font-family="AndaleMono, Andale Mono" font-size="203" font-weight="normal" fill="#000000">
            <tspan x="817" y="263">s</tspan>
        </text>
        <text id="c" font-family="AndaleMono, Andale Mono" font-size="203" font-weight="normal" fill="#000000">
            <tspan x="472" y="263">c</tspan>
        </text>
        <text id="m" font-family="AndaleMono, Andale Mono" font-size="203" font-weight="normal" fill="#000000">
            <tspan x="590" y="263">m</tspan>
        </text>
        <text id="d" font-family="AndaleMono, Andale Mono" font-size="203" font-weight="normal" fill="#000000">
            <tspan x="709" y="263">d</tspan>
        </text>
        <text id="h" font-family="AndaleMono, Andale Mono" font-size="203" font-weight="normal" fill="#000000">
            <tspan x="924" y="262">h</tspan>
        </text>
        <text id="e" font-family="AndaleMono, Andale Mono" font-size="203" font-weight="normal" fill="#000000">
            <tspan x="1032" y="263">e</tspan>
        </text>
        <text id="l" font-family="AndaleMono, Andale Mono" font-size="203" font-weight="normal" fill="#000000">
            <tspan x="1126" y="262">l</tspan>
        </text>
        <text id="f" font-family="AndaleMono, Andale Mono" font-size="207" font-weight="normal" fill="#000000">
            <tspan x="1215" y="262">f</tspan>
        </text>
    </g>
</svg>